<?xml version="1.0" standalone="no"?><!DOCTYPE svg PUBLIC "-//W3C//DTD SVG 1.1//EN" "http://www.w3.org/Graphics/SVG/1.1/DTD/svg11.dtd"><svg t="1582973614775" class="icon" viewBox="0 0 1024 1024" version="1.1" xmlns="http://www.w3.org/2000/svg" p-id="28376" xmlns:xlink="http://www.w3.org/1999/xlink" width="200" height="200"><defs><style type="text/css"></style></defs><path d="M918.691833 149.924149H108.740166c-54.370083 0-98.44417 44.254719-98.44417 98.44417V803.810196c0 54.370083 44.254719 98.44417 98.44417 98.44417h809.951667c54.370083 0 98.44417-44.254719 98.44417-98.44417V248.368319c0-54.189451-44.074087-98.44417-98.44417-98.44417zM108.740166 214.590228h809.951667c18.605045 0 33.778091 15.173046 33.778091 33.778091v444.534133c-68.278709-106.391956-120.842477-174.851297-175.393191-184.244135-20.050097-3.431999-39.016405 1.445052-54.911977 14.089258l-2.890104 2.709472c-35.765038 36.487564-57.982713 71.530076-77.490916 102.418063-23.662727 37.390721-40.642089 64.304816-71.710707 77.310284-0.361263 0-13.1861-0.541895-42.809667-38.835773-23.843359-30.526724-48.951138-72.433233-75.503969-116.687952-30.887987-51.479979-62.859764-104.585641-94.83154-142.87952-35.945669-42.809667-73.155759-45.699771-98.082907-40.642089-73.697654 15.173046-137.641207 125.358264-183.70224 234.459693v-352.231434c-0.180632-18.605045 14.992415-33.778091 33.59746-33.778091z m809.951667 623.178691H108.740166c-18.605045 0-33.778091-15.173046-33.778092-33.778092v-10.83789C136.015523 590.303757 216.757806 441.282766 271.850415 429.902981c4.696419-0.903158 16.979361-3.431999 35.584406 18.785677 28.720409 34.319986 59.427765 85.25807 89.051332 134.570471 59.789028 99.527959 112.352796 187.31487 172.683718 187.31487 8.489681 0 16.979361-1.806315 25.830305-5.418945 49.854295-20.772623 74.962074-60.330923 101.514906-102.418063 17.521256-27.63662 37.21009-58.885871 67.19492-89.95449 0.722526-0.361263 1.445052-0.361263 2.528841-0.180631 38.835774 6.683366 116.326689 130.054683 162.568354 203.932969 7.767155 12.282942 15.173046 24.204622 22.578938 35.765038-3.61263 14.45052-16.979361 25.469042-32.694302 25.469042z" p-id="28377" fill="#bfbfbf"></path><path d="M764.071265 471.086964c61.053449 0 110.546481-49.673664 110.546481-110.546481s-49.673664-110.546481-110.546481-110.546481-110.546481 49.673664-110.546481 110.546481 49.673664 110.546481 110.546481 110.546481z m0-156.426883c25.288411 0 45.880402 20.591992 45.880402 45.880402 0 25.288411-20.591992 45.880402-45.880402 45.880403s-45.880402-20.591992-45.880402-45.880403c0-25.288411 20.591992-45.880402 45.880402-45.880402z" p-id="28378" fill="#bfbfbf"></path></svg>