<?xml version="1.0" standalone="no"?><!DOCTYPE svg PUBLIC "-//W3C//DTD SVG 1.1//EN" "http://www.w3.org/Graphics/SVG/1.1/DTD/svg11.dtd"><svg t="1582973447335" class="icon" viewBox="0 0 1024 1024" version="1.1" xmlns="http://www.w3.org/2000/svg" p-id="25857" xmlns:xlink="http://www.w3.org/1999/xlink" width="200" height="200"><defs><style type="text/css"></style></defs><path d="M682.666667 1024C682.666667 1024 682.666667 1024 682.666667 1024L170.666667 1024c-17.066667 0-29.866667-8.533333-38.4-21.333333-8.533333-12.8-8.533333-29.866667 0-42.666667l256-384c17.066667-25.6 55.466667-25.6 72.533333 0l251.733333 379.733333c8.533333 8.533333 12.8 17.066667 12.8 29.866667C725.333333 1006.933333 708.266667 1024 682.666667 1024zM251.733333 938.666667l354.133333 0L426.666667 674.133333 251.733333 938.666667z" p-id="25858" fill="#bfbfbf"></path><path d="M981.333333 725.333333l-341.333333 0c-25.6 0-42.666667-17.066667-42.666667-42.666667L597.333333 341.333333c0-25.6 17.066667-42.666667 42.666667-42.666667l341.333333 0c25.6 0 42.666667 17.066667 42.666667 42.666667l0 341.333333C1024 708.266667 1006.933333 725.333333 981.333333 725.333333zM682.666667 640l256 0L938.666667 384l-256 0L682.666667 640z" p-id="25859" fill="#bfbfbf"></path><path d="M277.333333 554.666667C123.733333 554.666667 0 430.933333 0 277.333333S123.733333 0 277.333333 0 554.666667 123.733333 554.666667 277.333333 430.933333 554.666667 277.333333 554.666667zM277.333333 85.333333C170.666667 85.333333 85.333333 170.666667 85.333333 277.333333S170.666667 469.333333 277.333333 469.333333 469.333333 384 469.333333 277.333333 384 85.333333 277.333333 85.333333z" p-id="25860" fill="#bfbfbf"></path></svg>